<mxfile host="app.diagrams.net" modified="2022-11-01T17:07:44.923Z" agent="5.0 (Windows NT 10.0; Win64; x64) AppleWebKit/537.36 (KHTML, like Gecko) Chrome/106.0.0.0 Safari/537.36" etag="BQH9LFJSUZkq0Mqs1P6z" version="20.0.3" type="github">
  <diagram id="4b_G9jDjYZJUIoSFPc0T" name="Page-1">
    <mxGraphModel dx="1422" dy="794" grid="0" gridSize="10" guides="1" tooltips="1" connect="1" arrows="1" fold="1" page="1" pageScale="1" pageWidth="827" pageHeight="1169" math="0" shadow="0">
      <root>
        <mxCell id="0" />
        <mxCell id="1" parent="0" />
        <mxCell id="lpokAuvTIs-2x7VzEWA0-1" value="" style="ellipse;whiteSpace=wrap;html=1;strokeColor=#999999;fontStyle=1;fillColor=#000000;" vertex="1" parent="1">
          <mxGeometry x="214.37" y="287.48" width="39.37" height="39.37" as="geometry" />
        </mxCell>
        <mxCell id="lpokAuvTIs-2x7VzEWA0-2" value="" style="ellipse;whiteSpace=wrap;html=1;strokeColor=#999999;fontStyle=1;fillColor=#000000;" vertex="1" parent="1">
          <mxGeometry x="214.37" y="248.10999999999999" width="39.37" height="39.37" as="geometry" />
        </mxCell>
        <mxCell id="lpokAuvTIs-2x7VzEWA0-3" value="" style="ellipse;whiteSpace=wrap;html=1;strokeColor=#999999;fontStyle=1;fillColor=#000000;" vertex="1" parent="1">
          <mxGeometry x="214.37" y="326.85" width="39.37" height="39.37" as="geometry" />
        </mxCell>
        <mxCell id="lpokAuvTIs-2x7VzEWA0-4" value="" style="ellipse;whiteSpace=wrap;html=1;strokeColor=#999999;fontStyle=1;fillColor=#FF0000;" vertex="1" parent="1">
          <mxGeometry x="249.37" y="268.48" width="39.37" height="39.37" as="geometry" />
        </mxCell>
        <mxCell id="lpokAuvTIs-2x7VzEWA0-5" value="" style="ellipse;whiteSpace=wrap;html=1;strokeColor=#999999;fontStyle=1;fillColor=#FF0000;" vertex="1" parent="1">
          <mxGeometry x="249.37" y="307.85" width="39.37" height="39.37" as="geometry" />
        </mxCell>
        <mxCell id="lpokAuvTIs-2x7VzEWA0-6" value="" style="ellipse;whiteSpace=wrap;html=1;strokeColor=#999999;fontStyle=1;fillColor=#000000;" vertex="1" parent="1">
          <mxGeometry x="214.37" y="169.36999999999998" width="39.37" height="39.37" as="geometry" />
        </mxCell>
        <mxCell id="lpokAuvTIs-2x7VzEWA0-8" value="" style="ellipse;whiteSpace=wrap;html=1;strokeColor=#999999;fontStyle=1;fillColor=#000000;" vertex="1" parent="1">
          <mxGeometry x="214.37" y="208.73999999999998" width="39.37" height="39.37" as="geometry" />
        </mxCell>
        <mxCell id="lpokAuvTIs-2x7VzEWA0-9" value="" style="ellipse;whiteSpace=wrap;html=1;strokeColor=#999999;fontStyle=1;fillColor=#000000;" vertex="1" parent="1">
          <mxGeometry x="214.37" y="405.59000000000003" width="39.37" height="39.37" as="geometry" />
        </mxCell>
        <mxCell id="lpokAuvTIs-2x7VzEWA0-10" value="" style="ellipse;whiteSpace=wrap;html=1;strokeColor=#999999;fontStyle=1;fillColor=#000000;" vertex="1" parent="1">
          <mxGeometry x="214.37" y="366.22" width="39.37" height="39.37" as="geometry" />
        </mxCell>
        <mxCell id="lpokAuvTIs-2x7VzEWA0-11" value="" style="ellipse;whiteSpace=wrap;html=1;strokeColor=#999999;fontStyle=1;fillColor=#000000;" vertex="1" parent="1">
          <mxGeometry x="214.37" y="444.96000000000004" width="39.37" height="39.37" as="geometry" />
        </mxCell>
        <mxCell id="lpokAuvTIs-2x7VzEWA0-12" value="" style="ellipse;whiteSpace=wrap;html=1;strokeColor=#999999;fontStyle=1;fillColor=#FF0000;" vertex="1" parent="1">
          <mxGeometry x="249.37" y="386.59000000000003" width="39.37" height="39.37" as="geometry" />
        </mxCell>
        <mxCell id="lpokAuvTIs-2x7VzEWA0-13" value="" style="ellipse;whiteSpace=wrap;html=1;strokeColor=#999999;fontStyle=1;fillColor=#FF0000;" vertex="1" parent="1">
          <mxGeometry x="249.37" y="347.22" width="39.37" height="39.37" as="geometry" />
        </mxCell>
        <mxCell id="lpokAuvTIs-2x7VzEWA0-14" value="" style="ellipse;whiteSpace=wrap;html=1;strokeColor=#999999;fontStyle=1;fillColor=#FF0000;" vertex="1" parent="1">
          <mxGeometry x="249.37" y="425.96000000000004" width="39.37" height="39.37" as="geometry" />
        </mxCell>
        <mxCell id="lpokAuvTIs-2x7VzEWA0-15" value="" style="ellipse;whiteSpace=wrap;html=1;strokeColor=#999999;fontStyle=1;fillColor=#FF0000;" vertex="1" parent="1">
          <mxGeometry x="249.37" y="189.73999999999998" width="39.37" height="39.37" as="geometry" />
        </mxCell>
        <mxCell id="lpokAuvTIs-2x7VzEWA0-17" value="" style="ellipse;whiteSpace=wrap;html=1;strokeColor=#999999;fontStyle=1;fillColor=#FF0000;" vertex="1" parent="1">
          <mxGeometry x="249.37" y="229.10999999999999" width="39.37" height="39.37" as="geometry" />
        </mxCell>
        <mxCell id="lpokAuvTIs-2x7VzEWA0-23" value="" style="ellipse;whiteSpace=wrap;html=1;strokeColor=#999999;fontStyle=1;fillColor=#FF0000;" vertex="1" parent="1">
          <mxGeometry x="249.37" y="465.33000000000004" width="39.37" height="39.37" as="geometry" />
        </mxCell>
        <mxCell id="lpokAuvTIs-2x7VzEWA0-25" value="" style="ellipse;whiteSpace=wrap;html=1;strokeColor=#999999;fontStyle=1;fillColor=#000000;" vertex="1" parent="1">
          <mxGeometry x="283.37" y="288.48" width="39.37" height="39.37" as="geometry" />
        </mxCell>
        <mxCell id="lpokAuvTIs-2x7VzEWA0-26" value="" style="ellipse;whiteSpace=wrap;html=1;strokeColor=#999999;fontStyle=1;fillColor=#000000;" vertex="1" parent="1">
          <mxGeometry x="283.37" y="249.10999999999999" width="39.37" height="39.37" as="geometry" />
        </mxCell>
        <mxCell id="lpokAuvTIs-2x7VzEWA0-27" value="" style="ellipse;whiteSpace=wrap;html=1;strokeColor=#999999;fontStyle=1;fillColor=#000000;" vertex="1" parent="1">
          <mxGeometry x="283.37" y="327.85" width="39.37" height="39.37" as="geometry" />
        </mxCell>
        <mxCell id="lpokAuvTIs-2x7VzEWA0-28" value="" style="ellipse;whiteSpace=wrap;html=1;strokeColor=#999999;fontStyle=1;fillColor=#FF0000;" vertex="1" parent="1">
          <mxGeometry x="318.37" y="269.48" width="39.37" height="39.37" as="geometry" />
        </mxCell>
        <mxCell id="lpokAuvTIs-2x7VzEWA0-29" value="" style="ellipse;whiteSpace=wrap;html=1;strokeColor=#999999;fontStyle=1;fillColor=#FFFFFF;" vertex="1" parent="1">
          <mxGeometry x="318.37" y="308.85" width="39.37" height="39.37" as="geometry" />
        </mxCell>
        <mxCell id="lpokAuvTIs-2x7VzEWA0-30" value="" style="ellipse;whiteSpace=wrap;html=1;strokeColor=#999999;fontStyle=1;fillColor=#000000;" vertex="1" parent="1">
          <mxGeometry x="283.37" y="170.36999999999998" width="39.37" height="39.37" as="geometry" />
        </mxCell>
        <mxCell id="lpokAuvTIs-2x7VzEWA0-32" value="" style="ellipse;whiteSpace=wrap;html=1;strokeColor=#999999;fontStyle=1;fillColor=#000000;" vertex="1" parent="1">
          <mxGeometry x="283.37" y="209.73999999999998" width="39.37" height="39.37" as="geometry" />
        </mxCell>
        <mxCell id="lpokAuvTIs-2x7VzEWA0-33" value="" style="ellipse;whiteSpace=wrap;html=1;strokeColor=#999999;fontStyle=1;fillColor=#000000;" vertex="1" parent="1">
          <mxGeometry x="283.37" y="406.59000000000003" width="39.37" height="39.37" as="geometry" />
        </mxCell>
        <mxCell id="lpokAuvTIs-2x7VzEWA0-34" value="" style="ellipse;whiteSpace=wrap;html=1;strokeColor=#999999;fontStyle=1;fillColor=#000000;" vertex="1" parent="1">
          <mxGeometry x="283.37" y="367.22" width="39.37" height="39.37" as="geometry" />
        </mxCell>
        <mxCell id="lpokAuvTIs-2x7VzEWA0-35" value="" style="ellipse;whiteSpace=wrap;html=1;strokeColor=#999999;fontStyle=1;fillColor=#000000;" vertex="1" parent="1">
          <mxGeometry x="283.37" y="445.96000000000004" width="39.37" height="39.37" as="geometry" />
        </mxCell>
        <mxCell id="lpokAuvTIs-2x7VzEWA0-36" value="" style="ellipse;whiteSpace=wrap;html=1;strokeColor=#999999;fontStyle=1;fillColor=#000000;" vertex="1" parent="1">
          <mxGeometry x="318.37" y="387.59000000000003" width="39.37" height="39.37" as="geometry" />
        </mxCell>
        <mxCell id="lpokAuvTIs-2x7VzEWA0-37" value="" style="ellipse;whiteSpace=wrap;html=1;strokeColor=#999999;fontStyle=1;fillColor=#FFFFFF;" vertex="1" parent="1">
          <mxGeometry x="318.37" y="348.22" width="39.37" height="39.37" as="geometry" />
        </mxCell>
        <mxCell id="lpokAuvTIs-2x7VzEWA0-38" value="" style="ellipse;whiteSpace=wrap;html=1;strokeColor=#999999;fontStyle=1;fillColor=#FF0000;" vertex="1" parent="1">
          <mxGeometry x="318.37" y="426.96000000000004" width="39.37" height="39.37" as="geometry" />
        </mxCell>
        <mxCell id="lpokAuvTIs-2x7VzEWA0-39" value="" style="ellipse;whiteSpace=wrap;html=1;strokeColor=#999999;fontStyle=1;fillColor=#FF0000;" vertex="1" parent="1">
          <mxGeometry x="318.37" y="190.73999999999998" width="39.37" height="39.37" as="geometry" />
        </mxCell>
        <mxCell id="lpokAuvTIs-2x7VzEWA0-40" value="" style="ellipse;whiteSpace=wrap;html=1;strokeColor=#999999;fontStyle=1;fillColor=#FF0000;" vertex="1" parent="1">
          <mxGeometry x="318.37" y="151.36999999999998" width="39.37" height="39.37" as="geometry" />
        </mxCell>
        <mxCell id="lpokAuvTIs-2x7VzEWA0-41" value="" style="ellipse;whiteSpace=wrap;html=1;strokeColor=#999999;fontStyle=1;fillColor=#FF0000;" vertex="1" parent="1">
          <mxGeometry x="318.37" y="230.10999999999999" width="39.37" height="39.37" as="geometry" />
        </mxCell>
        <mxCell id="lpokAuvTIs-2x7VzEWA0-42" value="" style="ellipse;whiteSpace=wrap;html=1;strokeColor=#999999;fontStyle=1;fillColor=#000000;" vertex="1" parent="1">
          <mxGeometry x="283.37" y="485.33000000000004" width="39.37" height="39.37" as="geometry" />
        </mxCell>
        <mxCell id="lpokAuvTIs-2x7VzEWA0-44" value="" style="ellipse;whiteSpace=wrap;html=1;strokeColor=#999999;fontStyle=1;fillColor=#FF0000;" vertex="1" parent="1">
          <mxGeometry x="318.37" y="466.33000000000004" width="39.37" height="39.37" as="geometry" />
        </mxCell>
        <mxCell id="lpokAuvTIs-2x7VzEWA0-45" value="" style="ellipse;whiteSpace=wrap;html=1;strokeColor=#999999;fontStyle=1;fillColor=#FF0000;" vertex="1" parent="1">
          <mxGeometry x="318.37" y="505.70000000000005" width="39.37" height="39.37" as="geometry" />
        </mxCell>
        <mxCell id="lpokAuvTIs-2x7VzEWA0-67" value="" style="ellipse;whiteSpace=wrap;html=1;strokeColor=#999999;fontStyle=1;fillColor=#000000;" vertex="1" parent="1">
          <mxGeometry x="145" y="287.48" width="39.37" height="39.37" as="geometry" />
        </mxCell>
        <mxCell id="lpokAuvTIs-2x7VzEWA0-68" value="" style="ellipse;whiteSpace=wrap;html=1;strokeColor=#999999;fontStyle=1;fillColor=#000000;" vertex="1" parent="1">
          <mxGeometry x="145" y="248.10999999999999" width="39.37" height="39.37" as="geometry" />
        </mxCell>
        <mxCell id="lpokAuvTIs-2x7VzEWA0-69" value="" style="ellipse;whiteSpace=wrap;html=1;strokeColor=#999999;fontStyle=1;fillColor=#000000;" vertex="1" parent="1">
          <mxGeometry x="145" y="326.85" width="39.37" height="39.37" as="geometry" />
        </mxCell>
        <mxCell id="lpokAuvTIs-2x7VzEWA0-70" value="" style="ellipse;whiteSpace=wrap;html=1;strokeColor=#999999;fontStyle=1;fillColor=#FF0000;" vertex="1" parent="1">
          <mxGeometry x="180" y="268.48" width="39.37" height="39.37" as="geometry" />
        </mxCell>
        <mxCell id="lpokAuvTIs-2x7VzEWA0-71" value="" style="ellipse;whiteSpace=wrap;html=1;strokeColor=#999999;fontStyle=1;fillColor=#FF0000;" vertex="1" parent="1">
          <mxGeometry x="180" y="307.85" width="39.37" height="39.37" as="geometry" />
        </mxCell>
        <mxCell id="lpokAuvTIs-2x7VzEWA0-72" value="" style="ellipse;whiteSpace=wrap;html=1;strokeColor=#999999;fontStyle=1;fillColor=#000000;" vertex="1" parent="1">
          <mxGeometry x="145" y="169.36999999999998" width="39.37" height="39.37" as="geometry" />
        </mxCell>
        <mxCell id="lpokAuvTIs-2x7VzEWA0-73" value="" style="ellipse;whiteSpace=wrap;html=1;strokeColor=#999999;fontStyle=1;fillColor=#000000;" vertex="1" parent="1">
          <mxGeometry x="145" y="129.99999999999997" width="39.37" height="39.37" as="geometry" />
        </mxCell>
        <mxCell id="lpokAuvTIs-2x7VzEWA0-74" value="" style="ellipse;whiteSpace=wrap;html=1;strokeColor=#999999;fontStyle=1;fillColor=#000000;" vertex="1" parent="1">
          <mxGeometry x="145" y="208.73999999999998" width="39.37" height="39.37" as="geometry" />
        </mxCell>
        <mxCell id="lpokAuvTIs-2x7VzEWA0-75" value="" style="ellipse;whiteSpace=wrap;html=1;strokeColor=#999999;fontStyle=1;fillColor=#000000;" vertex="1" parent="1">
          <mxGeometry x="145" y="405.59000000000003" width="39.37" height="39.37" as="geometry" />
        </mxCell>
        <mxCell id="lpokAuvTIs-2x7VzEWA0-76" value="" style="ellipse;whiteSpace=wrap;html=1;strokeColor=#999999;fontStyle=1;fillColor=#000000;" vertex="1" parent="1">
          <mxGeometry x="145" y="366.22" width="39.37" height="39.37" as="geometry" />
        </mxCell>
        <mxCell id="lpokAuvTIs-2x7VzEWA0-78" value="" style="ellipse;whiteSpace=wrap;html=1;strokeColor=#999999;fontStyle=1;fillColor=#FF0000;" vertex="1" parent="1">
          <mxGeometry x="180" y="386.59000000000003" width="39.37" height="39.37" as="geometry" />
        </mxCell>
        <mxCell id="lpokAuvTIs-2x7VzEWA0-79" value="" style="ellipse;whiteSpace=wrap;html=1;strokeColor=#999999;fontStyle=1;fillColor=#FF0000;" vertex="1" parent="1">
          <mxGeometry x="180" y="347.22" width="39.37" height="39.37" as="geometry" />
        </mxCell>
        <mxCell id="lpokAuvTIs-2x7VzEWA0-80" value="" style="ellipse;whiteSpace=wrap;html=1;strokeColor=#999999;fontStyle=1;fillColor=#FF0000;" vertex="1" parent="1">
          <mxGeometry x="180" y="425.96000000000004" width="39.37" height="39.37" as="geometry" />
        </mxCell>
        <mxCell id="lpokAuvTIs-2x7VzEWA0-81" value="" style="ellipse;whiteSpace=wrap;html=1;strokeColor=#999999;fontStyle=1;fillColor=#FF0000;" vertex="1" parent="1">
          <mxGeometry x="180" y="189.73999999999998" width="39.37" height="39.37" as="geometry" />
        </mxCell>
        <mxCell id="lpokAuvTIs-2x7VzEWA0-82" value="" style="ellipse;whiteSpace=wrap;html=1;strokeColor=#999999;fontStyle=1;fillColor=#FF0000;" vertex="1" parent="1">
          <mxGeometry x="180" y="150.36999999999998" width="39.37" height="39.37" as="geometry" />
        </mxCell>
        <mxCell id="lpokAuvTIs-2x7VzEWA0-83" value="" style="ellipse;whiteSpace=wrap;html=1;strokeColor=#999999;fontStyle=1;fillColor=#FF0000;" vertex="1" parent="1">
          <mxGeometry x="180" y="229.10999999999999" width="39.37" height="39.37" as="geometry" />
        </mxCell>
        <mxCell id="lpokAuvTIs-2x7VzEWA0-88" value="" style="ellipse;whiteSpace=wrap;html=1;strokeColor=#999999;fillColor=#000000;" vertex="1" parent="1">
          <mxGeometry x="496.11" y="289.48" width="39.37" height="39.37" as="geometry" />
        </mxCell>
        <mxCell id="lpokAuvTIs-2x7VzEWA0-89" value="" style="ellipse;whiteSpace=wrap;html=1;strokeColor=#999999;fillColor=#000000;" vertex="1" parent="1">
          <mxGeometry x="496.11" y="250.11" width="39.37" height="39.37" as="geometry" />
        </mxCell>
        <mxCell id="lpokAuvTIs-2x7VzEWA0-90" value="" style="ellipse;whiteSpace=wrap;html=1;strokeColor=#999999;fillColor=#000000;" vertex="1" parent="1">
          <mxGeometry x="496.11" y="328.85" width="39.37" height="39.37" as="geometry" />
        </mxCell>
        <mxCell id="lpokAuvTIs-2x7VzEWA0-91" value="" style="ellipse;whiteSpace=wrap;html=1;strokeColor=#999999;fillColor=#FF0000;" vertex="1" parent="1">
          <mxGeometry x="531.11" y="270.48" width="39.37" height="39.37" as="geometry" />
        </mxCell>
        <mxCell id="lpokAuvTIs-2x7VzEWA0-92" value="" style="ellipse;whiteSpace=wrap;html=1;strokeColor=#999999;fillColor=#FF0000;" vertex="1" parent="1">
          <mxGeometry x="531.11" y="309.85" width="39.37" height="39.37" as="geometry" />
        </mxCell>
        <mxCell id="lpokAuvTIs-2x7VzEWA0-93" value="" style="ellipse;whiteSpace=wrap;html=1;strokeColor=#999999;fillColor=#000000;" vertex="1" parent="1">
          <mxGeometry x="496.11" y="171.37" width="39.37" height="39.37" as="geometry" />
        </mxCell>
        <mxCell id="lpokAuvTIs-2x7VzEWA0-95" value="" style="ellipse;whiteSpace=wrap;html=1;strokeColor=#999999;fillColor=#000000;" vertex="1" parent="1">
          <mxGeometry x="496.11" y="210.74" width="39.37" height="39.37" as="geometry" />
        </mxCell>
        <mxCell id="lpokAuvTIs-2x7VzEWA0-96" value="" style="ellipse;whiteSpace=wrap;html=1;strokeColor=#999999;fillColor=#000000;" vertex="1" parent="1">
          <mxGeometry x="496.11" y="407.59000000000003" width="39.37" height="39.37" as="geometry" />
        </mxCell>
        <mxCell id="lpokAuvTIs-2x7VzEWA0-97" value="" style="ellipse;whiteSpace=wrap;html=1;strokeColor=#999999;fillColor=#000000;" vertex="1" parent="1">
          <mxGeometry x="496.11" y="368.22" width="39.37" height="39.37" as="geometry" />
        </mxCell>
        <mxCell id="lpokAuvTIs-2x7VzEWA0-98" value="" style="ellipse;whiteSpace=wrap;html=1;strokeColor=#999999;fillColor=#000000;" vertex="1" parent="1">
          <mxGeometry x="496.11" y="446.96000000000004" width="39.37" height="39.37" as="geometry" />
        </mxCell>
        <mxCell id="lpokAuvTIs-2x7VzEWA0-99" value="" style="ellipse;whiteSpace=wrap;html=1;strokeColor=#999999;fillColor=#FF0000;" vertex="1" parent="1">
          <mxGeometry x="531.11" y="388.59000000000003" width="39.37" height="39.37" as="geometry" />
        </mxCell>
        <mxCell id="lpokAuvTIs-2x7VzEWA0-100" value="" style="ellipse;whiteSpace=wrap;html=1;strokeColor=#999999;fillColor=#FF0000;" vertex="1" parent="1">
          <mxGeometry x="531.11" y="349.22" width="39.37" height="39.37" as="geometry" />
        </mxCell>
        <mxCell id="lpokAuvTIs-2x7VzEWA0-101" value="" style="ellipse;whiteSpace=wrap;html=1;strokeColor=#999999;fillColor=#FF0000;" vertex="1" parent="1">
          <mxGeometry x="531.11" y="427.96000000000004" width="39.37" height="39.37" as="geometry" />
        </mxCell>
        <mxCell id="lpokAuvTIs-2x7VzEWA0-102" value="" style="ellipse;whiteSpace=wrap;html=1;strokeColor=#999999;fillColor=#FF0000;" vertex="1" parent="1">
          <mxGeometry x="531.11" y="191.74" width="39.37" height="39.37" as="geometry" />
        </mxCell>
        <mxCell id="lpokAuvTIs-2x7VzEWA0-103" value="" style="ellipse;whiteSpace=wrap;html=1;strokeColor=#999999;fillColor=#FF0000;" vertex="1" parent="1">
          <mxGeometry x="531.11" y="152.37" width="39.37" height="39.37" as="geometry" />
        </mxCell>
        <mxCell id="lpokAuvTIs-2x7VzEWA0-104" value="" style="ellipse;whiteSpace=wrap;html=1;strokeColor=#999999;fillColor=#FF0000;" vertex="1" parent="1">
          <mxGeometry x="531.11" y="231.11" width="39.37" height="39.37" as="geometry" />
        </mxCell>
        <mxCell id="lpokAuvTIs-2x7VzEWA0-109" value="" style="ellipse;whiteSpace=wrap;html=1;strokeColor=#999999;fillColor=#000000;" vertex="1" parent="1">
          <mxGeometry x="565.11" y="290.48" width="39.37" height="39.37" as="geometry" />
        </mxCell>
        <mxCell id="lpokAuvTIs-2x7VzEWA0-110" value="" style="ellipse;whiteSpace=wrap;html=1;strokeColor=#999999;fillColor=#000000;" vertex="1" parent="1">
          <mxGeometry x="565.11" y="251.11" width="39.37" height="39.37" as="geometry" />
        </mxCell>
        <mxCell id="lpokAuvTIs-2x7VzEWA0-111" value="" style="ellipse;whiteSpace=wrap;html=1;strokeColor=#999999;fillColor=#000000;" vertex="1" parent="1">
          <mxGeometry x="565.11" y="329.85" width="39.37" height="39.37" as="geometry" />
        </mxCell>
        <mxCell id="lpokAuvTIs-2x7VzEWA0-114" value="" style="ellipse;whiteSpace=wrap;html=1;strokeColor=#999999;fillColor=#000000;" vertex="1" parent="1">
          <mxGeometry x="565.11" y="172.37" width="39.37" height="39.37" as="geometry" />
        </mxCell>
        <mxCell id="lpokAuvTIs-2x7VzEWA0-115" value="" style="ellipse;whiteSpace=wrap;html=1;strokeColor=#999999;fillColor=#000000;" vertex="1" parent="1">
          <mxGeometry x="565.11" y="133" width="39.37" height="39.37" as="geometry" />
        </mxCell>
        <mxCell id="lpokAuvTIs-2x7VzEWA0-116" value="" style="ellipse;whiteSpace=wrap;html=1;strokeColor=#999999;fillColor=#000000;" vertex="1" parent="1">
          <mxGeometry x="565.11" y="211.74" width="39.37" height="39.37" as="geometry" />
        </mxCell>
        <mxCell id="lpokAuvTIs-2x7VzEWA0-117" value="" style="ellipse;whiteSpace=wrap;html=1;strokeColor=#999999;fillColor=#000000;" vertex="1" parent="1">
          <mxGeometry x="565.11" y="408.59000000000003" width="39.37" height="39.37" as="geometry" />
        </mxCell>
        <mxCell id="lpokAuvTIs-2x7VzEWA0-118" value="" style="ellipse;whiteSpace=wrap;html=1;strokeColor=#999999;fillColor=#000000;" vertex="1" parent="1">
          <mxGeometry x="565.11" y="369.22" width="39.37" height="39.37" as="geometry" />
        </mxCell>
        <mxCell id="lpokAuvTIs-2x7VzEWA0-130" value="" style="ellipse;whiteSpace=wrap;html=1;strokeColor=#999999;" vertex="1" parent="1">
          <mxGeometry x="353.74" y="289.48" width="39.37" height="39.37" as="geometry" />
        </mxCell>
        <mxCell id="lpokAuvTIs-2x7VzEWA0-131" value="" style="ellipse;whiteSpace=wrap;html=1;strokeColor=#999999;fillColor=#000000;" vertex="1" parent="1">
          <mxGeometry x="353.74" y="250.11" width="39.37" height="39.37" as="geometry" />
        </mxCell>
        <mxCell id="lpokAuvTIs-2x7VzEWA0-132" value="" style="ellipse;whiteSpace=wrap;html=1;strokeColor=#999999;" vertex="1" parent="1">
          <mxGeometry x="353.74" y="328.85" width="39.37" height="39.37" as="geometry" />
        </mxCell>
        <mxCell id="lpokAuvTIs-2x7VzEWA0-133" value="" style="ellipse;whiteSpace=wrap;html=1;strokeColor=#999999;fillColor=#FF0000;" vertex="1" parent="1">
          <mxGeometry x="388.74" y="270.48" width="39.37" height="39.37" as="geometry" />
        </mxCell>
        <mxCell id="lpokAuvTIs-2x7VzEWA0-134" value="" style="ellipse;whiteSpace=wrap;html=1;strokeColor=#999999;fillColor=#FFFFFF;" vertex="1" parent="1">
          <mxGeometry x="388.74" y="309.85" width="39.37" height="39.37" as="geometry" />
        </mxCell>
        <mxCell id="lpokAuvTIs-2x7VzEWA0-135" value="" style="ellipse;whiteSpace=wrap;html=1;strokeColor=#999999;fillColor=#000000;" vertex="1" parent="1">
          <mxGeometry x="353.74" y="171.37" width="39.37" height="39.37" as="geometry" />
        </mxCell>
        <mxCell id="lpokAuvTIs-2x7VzEWA0-136" value="" style="ellipse;whiteSpace=wrap;html=1;strokeColor=#999999;fillColor=#000000;" vertex="1" parent="1">
          <mxGeometry x="353.74" y="132" width="39.37" height="39.37" as="geometry" />
        </mxCell>
        <mxCell id="lpokAuvTIs-2x7VzEWA0-137" value="" style="ellipse;whiteSpace=wrap;html=1;strokeColor=#999999;fillColor=#000000;" vertex="1" parent="1">
          <mxGeometry x="353.74" y="210.74" width="39.37" height="39.37" as="geometry" />
        </mxCell>
        <mxCell id="lpokAuvTIs-2x7VzEWA0-138" value="" style="ellipse;whiteSpace=wrap;html=1;strokeColor=#999999;fillColor=#000000;" vertex="1" parent="1">
          <mxGeometry x="353.74" y="407.59000000000003" width="39.37" height="39.37" as="geometry" />
        </mxCell>
        <mxCell id="lpokAuvTIs-2x7VzEWA0-139" value="" style="ellipse;whiteSpace=wrap;html=1;strokeColor=#999999;" vertex="1" parent="1">
          <mxGeometry x="353.74" y="368.22" width="39.37" height="39.37" as="geometry" />
        </mxCell>
        <mxCell id="lpokAuvTIs-2x7VzEWA0-140" value="" style="ellipse;whiteSpace=wrap;html=1;strokeColor=#999999;fillColor=#000000;" vertex="1" parent="1">
          <mxGeometry x="353.74" y="446.96000000000004" width="39.37" height="39.37" as="geometry" />
        </mxCell>
        <mxCell id="lpokAuvTIs-2x7VzEWA0-141" value="" style="ellipse;whiteSpace=wrap;html=1;strokeColor=#999999;fillColor=#FF0000;" vertex="1" parent="1">
          <mxGeometry x="388.74" y="388.59000000000003" width="39.37" height="39.37" as="geometry" />
        </mxCell>
        <mxCell id="lpokAuvTIs-2x7VzEWA0-142" value="" style="ellipse;whiteSpace=wrap;html=1;strokeColor=#999999;fillColor=#FFFFFF;" vertex="1" parent="1">
          <mxGeometry x="388.74" y="349.22" width="39.37" height="39.37" as="geometry" />
        </mxCell>
        <mxCell id="lpokAuvTIs-2x7VzEWA0-143" value="" style="ellipse;whiteSpace=wrap;html=1;strokeColor=#999999;fillColor=#FF0000;" vertex="1" parent="1">
          <mxGeometry x="388.74" y="427.96000000000004" width="39.37" height="39.37" as="geometry" />
        </mxCell>
        <mxCell id="lpokAuvTIs-2x7VzEWA0-144" value="" style="ellipse;whiteSpace=wrap;html=1;strokeColor=#999999;fillColor=#FF0000;" vertex="1" parent="1">
          <mxGeometry x="388.74" y="191.74" width="39.37" height="39.37" as="geometry" />
        </mxCell>
        <mxCell id="lpokAuvTIs-2x7VzEWA0-145" value="" style="ellipse;whiteSpace=wrap;html=1;strokeColor=#999999;fillColor=#FF0000;" vertex="1" parent="1">
          <mxGeometry x="388.74" y="152.37" width="39.37" height="39.37" as="geometry" />
        </mxCell>
        <mxCell id="lpokAuvTIs-2x7VzEWA0-146" value="" style="ellipse;whiteSpace=wrap;html=1;strokeColor=#999999;fillColor=#FF0000;" vertex="1" parent="1">
          <mxGeometry x="388.74" y="231.11" width="39.37" height="39.37" as="geometry" />
        </mxCell>
        <mxCell id="lpokAuvTIs-2x7VzEWA0-147" value="" style="ellipse;whiteSpace=wrap;html=1;strokeColor=#999999;fillColor=#000000;" vertex="1" parent="1">
          <mxGeometry x="353.74" y="486.33000000000004" width="39.37" height="39.37" as="geometry" />
        </mxCell>
        <mxCell id="lpokAuvTIs-2x7VzEWA0-148" value="" style="ellipse;whiteSpace=wrap;html=1;strokeColor=#999999;fillColor=#000000;" vertex="1" parent="1">
          <mxGeometry x="353.74" y="525.7" width="39.37" height="39.37" as="geometry" />
        </mxCell>
        <mxCell id="lpokAuvTIs-2x7VzEWA0-149" value="" style="ellipse;whiteSpace=wrap;html=1;strokeColor=#999999;fillColor=#FF0000;" vertex="1" parent="1">
          <mxGeometry x="388.74" y="467.33000000000004" width="39.37" height="39.37" as="geometry" />
        </mxCell>
        <mxCell id="lpokAuvTIs-2x7VzEWA0-150" value="" style="ellipse;whiteSpace=wrap;html=1;strokeColor=#999999;fillColor=#FF0000;" vertex="1" parent="1">
          <mxGeometry x="388.74" y="506.70000000000005" width="39.37" height="39.37" as="geometry" />
        </mxCell>
        <mxCell id="lpokAuvTIs-2x7VzEWA0-151" value="" style="ellipse;whiteSpace=wrap;html=1;strokeColor=#999999;fillColor=#000000;" vertex="1" parent="1">
          <mxGeometry x="426.74" y="289.48" width="39.37" height="39.37" as="geometry" />
        </mxCell>
        <mxCell id="lpokAuvTIs-2x7VzEWA0-152" value="" style="ellipse;whiteSpace=wrap;html=1;strokeColor=#999999;fillColor=#000000;" vertex="1" parent="1">
          <mxGeometry x="426.74" y="250.11" width="39.37" height="39.37" as="geometry" />
        </mxCell>
        <mxCell id="lpokAuvTIs-2x7VzEWA0-153" value="" style="ellipse;whiteSpace=wrap;html=1;strokeColor=#999999;fillColor=#000000;" vertex="1" parent="1">
          <mxGeometry x="426.74" y="328.85" width="39.37" height="39.37" as="geometry" />
        </mxCell>
        <mxCell id="lpokAuvTIs-2x7VzEWA0-154" value="" style="ellipse;whiteSpace=wrap;html=1;strokeColor=#999999;fillColor=#FF0000;" vertex="1" parent="1">
          <mxGeometry x="461.74" y="270.48" width="39.37" height="39.37" as="geometry" />
        </mxCell>
        <mxCell id="lpokAuvTIs-2x7VzEWA0-155" value="" style="ellipse;whiteSpace=wrap;html=1;strokeColor=#999999;fillColor=#FF0000;" vertex="1" parent="1">
          <mxGeometry x="461.74" y="309.85" width="39.37" height="39.37" as="geometry" />
        </mxCell>
        <mxCell id="lpokAuvTIs-2x7VzEWA0-156" value="" style="ellipse;whiteSpace=wrap;html=1;strokeColor=#999999;fillColor=#000000;" vertex="1" parent="1">
          <mxGeometry x="426.74" y="171.37" width="39.37" height="39.37" as="geometry" />
        </mxCell>
        <mxCell id="lpokAuvTIs-2x7VzEWA0-158" value="" style="ellipse;whiteSpace=wrap;html=1;strokeColor=#999999;fillColor=#000000;" vertex="1" parent="1">
          <mxGeometry x="426.74" y="210.74" width="39.37" height="39.37" as="geometry" />
        </mxCell>
        <mxCell id="lpokAuvTIs-2x7VzEWA0-159" value="" style="ellipse;whiteSpace=wrap;html=1;strokeColor=#999999;fillColor=#000000;" vertex="1" parent="1">
          <mxGeometry x="426.74" y="407.59000000000003" width="39.37" height="39.37" as="geometry" />
        </mxCell>
        <mxCell id="lpokAuvTIs-2x7VzEWA0-160" value="" style="ellipse;whiteSpace=wrap;html=1;strokeColor=#999999;fillColor=#000000;" vertex="1" parent="1">
          <mxGeometry x="426.74" y="368.22" width="39.37" height="39.37" as="geometry" />
        </mxCell>
        <mxCell id="lpokAuvTIs-2x7VzEWA0-161" value="" style="ellipse;whiteSpace=wrap;html=1;strokeColor=#999999;fillColor=#000000;" vertex="1" parent="1">
          <mxGeometry x="426.74" y="446.96000000000004" width="39.37" height="39.37" as="geometry" />
        </mxCell>
        <mxCell id="lpokAuvTIs-2x7VzEWA0-162" value="" style="ellipse;whiteSpace=wrap;html=1;strokeColor=#999999;fillColor=#FF0000;" vertex="1" parent="1">
          <mxGeometry x="461.74" y="388.59000000000003" width="39.37" height="39.37" as="geometry" />
        </mxCell>
        <mxCell id="lpokAuvTIs-2x7VzEWA0-163" value="" style="ellipse;whiteSpace=wrap;html=1;strokeColor=#999999;fillColor=#FF0000;" vertex="1" parent="1">
          <mxGeometry x="461.74" y="349.22" width="39.37" height="39.37" as="geometry" />
        </mxCell>
        <mxCell id="lpokAuvTIs-2x7VzEWA0-164" value="" style="ellipse;whiteSpace=wrap;html=1;strokeColor=#999999;fillColor=#FF0000;" vertex="1" parent="1">
          <mxGeometry x="461.74" y="427.96000000000004" width="39.37" height="39.37" as="geometry" />
        </mxCell>
        <mxCell id="lpokAuvTIs-2x7VzEWA0-165" value="" style="ellipse;whiteSpace=wrap;html=1;strokeColor=#999999;fillColor=#FF0000;" vertex="1" parent="1">
          <mxGeometry x="461.74" y="191.74" width="39.37" height="39.37" as="geometry" />
        </mxCell>
        <mxCell id="lpokAuvTIs-2x7VzEWA0-167" value="" style="ellipse;whiteSpace=wrap;html=1;strokeColor=#999999;fillColor=#FF0000;" vertex="1" parent="1">
          <mxGeometry x="461.74" y="231.11" width="39.37" height="39.37" as="geometry" />
        </mxCell>
        <mxCell id="lpokAuvTIs-2x7VzEWA0-168" value="" style="ellipse;whiteSpace=wrap;html=1;strokeColor=#999999;fillColor=#000000;" vertex="1" parent="1">
          <mxGeometry x="426.74" y="486.33000000000004" width="39.37" height="39.37" as="geometry" />
        </mxCell>
        <mxCell id="lpokAuvTIs-2x7VzEWA0-170" value="" style="ellipse;whiteSpace=wrap;html=1;strokeColor=#999999;fillColor=#FF0000;" vertex="1" parent="1">
          <mxGeometry x="461.74" y="467.33000000000004" width="39.37" height="39.37" as="geometry" />
        </mxCell>
        <mxCell id="lpokAuvTIs-2x7VzEWA0-172" value="" style="ellipse;whiteSpace=wrap;html=1;strokeColor=#999999;fillColor=#000000;" vertex="1" parent="1">
          <mxGeometry x="388.74" y="387.59000000000003" width="39.37" height="39.37" as="geometry" />
        </mxCell>
        <mxCell id="lpokAuvTIs-2x7VzEWA0-173" value="" style="ellipse;whiteSpace=wrap;html=1;strokeColor=#999999;fillColor=#000000;" vertex="1" parent="1">
          <mxGeometry x="426.74" y="367.22" width="39.37" height="39.37" as="geometry" />
        </mxCell>
        <mxCell id="lpokAuvTIs-2x7VzEWA0-174" value="" style="ellipse;whiteSpace=wrap;html=1;strokeColor=#999999;fillColor=#000000;" vertex="1" parent="1">
          <mxGeometry x="426.74" y="327.85" width="39.37" height="39.37" as="geometry" />
        </mxCell>
        <mxCell id="lpokAuvTIs-2x7VzEWA0-175" value="" style="ellipse;whiteSpace=wrap;html=1;strokeColor=#999999;fillColor=#000000;" vertex="1" parent="1">
          <mxGeometry x="426.74" y="288.48" width="39.37" height="39.37" as="geometry" />
        </mxCell>
        <mxCell id="lpokAuvTIs-2x7VzEWA0-176" value="" style="ellipse;whiteSpace=wrap;html=1;strokeColor=#999999;fillColor=#000000;" vertex="1" parent="1">
          <mxGeometry x="388.74" y="269.48" width="39.37" height="39.37" as="geometry" />
        </mxCell>
        <mxCell id="lpokAuvTIs-2x7VzEWA0-177" value="" style="ellipse;whiteSpace=wrap;html=1;strokeColor=#999999;fontStyle=1;fillColor=#000000;" vertex="1" parent="1">
          <mxGeometry x="318.37" y="268.48" width="39.37" height="39.37" as="geometry" />
        </mxCell>
      </root>
    </mxGraphModel>
  </diagram>
</mxfile>
